<?xml version="1.0" standalone="no"?>
<!DOCTYPE svg PUBLIC "-//W3C//DTD SVG 20010904//EN"
 "http://www.w3.org/TR/2001/REC-SVG-20010904/DTD/svg10.dtd">
<svg version="1.0" xmlns="http://www.w3.org/2000/svg"
 width="2064.000000pt" height="2064.000000pt" viewBox="0 0 2064.000000 2064.000000"
 preserveAspectRatio="xMidYMid meet">
<metadata>
Created by potrace 1.14, written by Peter Selinger 2001-2017
</metadata>
<g transform="translate(0.000000,2064.000000) scale(0.100000,-0.100000)"
fill="#000000" stroke="none">
<path d="M9805 20628 c-401 -14 -711 -61 -1233 -189 -733 -179 -1260 -434
-1907 -922 -372 -282 -772 -657 -1035 -972 -328 -392 -631 -861 -811 -1255
-161 -353 -262 -660 -378 -1150 -72 -306 -103 -461 -141 -720 -67 -450 -85
-691 -85 -1140 0 -383 7 -496 46 -780 65 -467 240 -1122 404 -1510 220 -520
548 -1029 933 -1447 269 -292 708 -620 1081 -808 127 -64 351 -157 409 -169
16 -4 88 -42 159 -84 72 -42 145 -85 162 -94 l32 -17 -31 -43 c-17 -23 -40
-63 -51 -88 -33 -73 -99 -367 -99 -440 0 -71 68 -378 96 -433 28 -54 159 -229
208 -277 l46 -44 0 -73 c0 -63 -2 -73 -18 -73 -34 0 -708 -70 -867 -91 -409
-51 -613 -89 -960 -174 -535 -132 -803 -263 -1265 -619 -127 -98 -388 -356
-491 -486 -109 -137 -264 -355 -355 -500 -82 -131 -264 -477 -264 -501 0 -8
-13 -41 -30 -72 -16 -32 -30 -64 -30 -70 0 -7 -13 -39 -30 -72 -16 -33 -30
-68 -30 -77 0 -9 -5 -20 -10 -23 -6 -3 -10 -13 -10 -21 0 -8 -9 -34 -20 -56
-11 -23 -20 -50 -20 -59 0 -10 -5 -21 -10 -24 -6 -3 -10 -16 -10 -29 0 -12 -4
-26 -8 -31 -5 -6 -14 -30 -21 -55 -7 -25 -17 -53 -22 -62 -5 -10 -9 -27 -9
-37 0 -11 -4 -23 -10 -26 -5 -3 -10 -17 -10 -30 0 -13 -4 -27 -10 -30 -5 -3
-10 -22 -10 -41 0 -19 -4 -34 -10 -34 -5 0 -10 -11 -10 -25 0 -14 -4 -33 -9
-43 -14 -29 -31 -87 -31 -110 0 -11 -4 -23 -9 -26 -8 -6 -14 -31 -27 -119 -4
-20 -10 -40 -15 -43 -5 -3 -9 -20 -9 -38 0 -17 -5 -37 -11 -43 -5 -5 -11 -25
-11 -42 -1 -17 -5 -34 -10 -37 -4 -3 -8 -20 -8 -39 0 -19 -4 -36 -9 -39 -5 -3
-11 -23 -14 -43 -3 -21 -11 -58 -17 -83 -6 -25 -14 -61 -16 -80 -3 -19 -9 -44
-14 -55 -8 -20 -16 -54 -26 -125 -3 -19 -9 -44 -14 -55 -5 -11 -11 -38 -15
-60 -4 -22 -10 -58 -15 -80 -20 -98 -33 -164 -41 -210 -4 -27 -13 -75 -19
-105 -5 -30 -15 -84 -21 -120 -6 -36 -15 -90 -20 -120 -5 -30 -14 -80 -18
-110 -9 -53 -23 -141 -41 -245 -5 -27 -14 -81 -20 -120 -6 -38 -16 -95 -21
-125 -23 -130 -30 -178 -35 -225 -3 -27 -10 -54 -15 -60 -5 -5 -9 -27 -9 -50
0 -23 -4 -45 -9 -50 -5 -6 -11 -30 -14 -55 -3 -25 -11 -67 -17 -95 -6 -27 -14
-70 -17 -95 -3 -25 -9 -50 -14 -55 -4 -6 -4 -17 1 -25 6 -8 10 -29 10 -47 0
-17 5 -35 10 -38 6 -3 10 -21 10 -40 0 -19 5 -37 10 -40 6 -3 10 -21 11 -38 0
-20 13 -49 35 -77 18 -25 46 -63 60 -84 14 -22 39 -50 55 -63 33 -28 36 -62
20 -181 -6 -37 -13 -112 -16 -167 -3 -55 -10 -158 -16 -230 -11 -168 -28 -608
-22 -618 2 -4 3456 -7 7675 -7 l7670 0 -5 47 c-13 107 -30 657 -30 936 l-1
297 60 60 c32 33 59 64 59 69 0 5 12 21 28 35 15 14 27 30 27 35 0 6 9 26 20
46 11 20 20 49 20 65 0 16 4 31 9 34 18 12 37 194 22 209 -6 6 -11 30 -11 53
0 24 -4 46 -10 49 -5 3 -10 26 -10 50 0 24 -4 47 -10 50 -5 3 -10 26 -10 50 0
24 -4 47 -10 50 -5 3 -10 25 -10 49 0 23 -4 46 -9 51 -5 6 -12 33 -14 60 -3
28 -11 75 -17 105 -6 30 -15 80 -20 110 -6 30 -15 80 -20 110 -21 107 -29 156
-35 205 -4 28 -10 59 -15 70 -5 11 -11 40 -14 65 -3 25 -11 70 -16 100 -6 30
-15 80 -20 110 -15 85 -38 203 -60 313 -6 26 -14 68 -20 95 -5 26 -13 67 -19
92 -5 25 -12 63 -16 85 -4 22 -10 49 -15 60 -5 11 -11 36 -14 55 -2 19 -10 55
-16 80 -6 25 -14 62 -17 83 -3 20 -9 40 -14 43 -5 3 -9 21 -9 40 0 19 -4 34
-10 34 -5 0 -10 14 -10 31 0 18 -5 50 -11 73 -6 22 -15 59 -21 81 -5 22 -14
48 -19 57 -5 10 -9 31 -9 47 0 17 -4 33 -10 36 -5 3 -10 21 -10 40 0 19 -4 37
-10 40 -5 3 -10 16 -10 27 0 23 -17 81 -31 110 -5 10 -9 27 -9 37 0 11 -4 23
-10 26 -5 3 -10 16 -10 27 0 23 -17 81 -31 110 -5 10 -9 27 -9 37 0 11 -4 23
-10 26 -5 3 -10 17 -10 30 0 13 -4 27 -10 30 -5 3 -10 13 -10 21 0 8 -9 33
-20 56 -11 22 -18 44 -15 48 2 4 -2 16 -10 26 -8 10 -15 27 -15 36 0 10 -9 33
-20 53 -11 20 -20 42 -20 49 0 8 -13 40 -30 71 -16 31 -30 63 -30 70 0 15 -10
37 -105 229 -110 223 -213 389 -399 646 -129 177 -220 286 -372 440 l-133 135
-105 310 c-453 1346 -1023 2509 -1736 3545 l-110 160 81 93 c110 124 254 304
367 460 396 546 586 951 742 1582 138 563 171 827 175 1430 3 372 1 437 -25
725 -58 638 -268 1517 -503 2100 -196 489 -393 844 -690 1242 -163 220 -251
322 -437 509 -245 245 -503 450 -855 682 -487 318 -1045 554 -1670 702 -554
132 -939 189 -1315 194 -74 2 -155 3 -180 4 -25 1 -130 -1 -235 -5z"/>
</g>
</svg>
